# xmcd CD database file generated by Grip 2.9
# 
# Track frame offsets:
#       180
#       13298
#       31918
#       47808
#       69030
#       110212
#       124385
#       137202
#       145167
#       155805
#       166452
#       183401
#       222284
#       239191
# 
# Disc length: 3445 seconds
# 
# Revision: 3
# Processed by: cddbd v1.4b41PL1 Copyright (c) Steve Scherf et al.
# Submitted via: Grip 2.9
# 
DISCID=db0d730e
DTITLE=Brute - Nine High A Pallet
DYEAR=1900
DGENRE=
TTITLE0=Westport Ferry
TTITLE1=Blight
TTITLE2=Good Morning Mr. Hard On
TTITLE3=I Ain't Crazy Enough
TTITLE4=Protein Drink - Sewing Machine
TTITLE5=Let's Get Down To Business
TTITLE6=George Wallace
TTITLE7=PC
TTITLE8=Snowblind
TTITLE9=Miserable
TTITLE10=Bastard In Bubbles
TTITLE11=Cataclysm
TTITLE12=Let's Get Down to Business (electric version)
TTITLE13=Blight (alternate take)
EXTD=Brute is Vic Chesnutt and friends
EXTT0=
EXTT1=
EXTT2=
EXTT3=
EXTT4=
EXTT5=
EXTT6=
EXTT7=
EXTT8=
EXTT9=
EXTT10=
EXTT11=
EXTT12=
EXTT13=
PLAYORDER=
